<?xml version="1.0" standalone="no"?>
<!DOCTYPE svg PUBLIC "-//W3C//DTD SVG 20010904//EN"
 "http://www.w3.org/TR/2001/REC-SVG-20010904/DTD/svg10.dtd">
<svg version="1.0" xmlns="http://www.w3.org/2000/svg"
 width="572.000000pt" height="572.000000pt" viewBox="0 0 572.000000 572.000000"
 preserveAspectRatio="xMidYMid meet">
<metadata>
Created by potrace 1.14, written by Peter Selinger 2001-2017
</metadata>
<g transform="translate(0.000000,572.000000) scale(0.100000,-0.100000)"
fill="#000000" stroke="none">
<path d="M1925 4816 c-57 -38 -140 -123 -157 -162 -11 -24 -9 -28 29 -60 l42
-35 -15 -41 c-18 -51 -18 -58 1 -58 9 0 18 -12 22 -30 8 -44 26 -32 37 24 l8
48 51 -7 c28 -4 63 -13 80 -20 29 -12 29 -12 6 -19 -23 -8 -23 -8 9 -19 20 -6
39 -22 48 -39 17 -33 34 -29 34 8 0 21 3 24 25 18 21 -5 25 -3 25 16 0 11 -4
19 -8 16 -4 -2 -9 5 -9 17 -2 18 0 19 8 7 8 -11 8 -7 2 15 -4 17 -7 55 -7 85
1 44 -1 51 -10 36 -24 -40 -43 -59 -54 -52 -7 4 -12 15 -11 24 0 16 1 16 7 0
4 -10 8 10 8 43 1 55 0 59 -12 38 -7 -13 -16 -43 -20 -66 -8 -57 -28 -44 -20
13 4 35 3 44 -9 44 -8 0 -15 -8 -15 -17 0 -15 -2 -16 -10 -3 -7 11 -11 9 -19
-13 -6 -16 -11 -33 -11 -38 0 -5 -5 -9 -11 -9 -7 0 -9 10 -5 27 5 16 3 29 -5
34 -10 6 -10 13 -1 34 19 41 15 55 -18 62 -36 7 -38 16 -5 41 13 11 21 22 18
26 -3 3 -1 6 5 6 7 0 12 6 12 14 0 8 6 17 13 19 6 3 7 6 2 6 -6 1 -33 -14 -60
-33z m205 -356 c0 -5 -2 -10 -4 -10 -3 0 -8 5 -11 10 -3 6 -1 10 4 10 6 0 11
-4 11 -10z"/>
<path d="M2226 4766 c3 -9 10 -14 14 -11 10 6 60 -69 60 -90 0 -8 4 -15 10
-15 5 0 12 -11 16 -25 3 -14 11 -22 17 -18 5 3 7 2 4 -4 -6 -9 14 -61 42 -113
4 -8 14 -46 21 -85 15 -81 16 -82 51 -89 32 -5 49 24 49 84 0 22 3 40 8 40 4
0 6 -30 4 -67 -3 -53 -1 -65 8 -56 8 7 12 48 12 120 0 116 -11 169 -33 167 -8
-1 -15 8 -15 20 -4 46 -9 64 -16 60 -4 -3 -8 -11 -8 -19 0 -14 -11 -14 -52 3
-19 8 -34 8 -57 -1 -25 -9 -33 -9 -43 2 -11 12 -10 13 5 8 31 -11 18 26 -21
59 -44 38 -85 54 -76 30z"/>
<path d="M2240 4664 c0 -8 5 -12 10 -9 6 3 10 10 10 16 0 5 -4 9 -10 9 -5 0
-10 -7 -10 -16z"/>
<path d="M1970 4650 c0 -5 5 -10 10 -10 6 0 10 5 10 10 0 6 -4 10 -10 10 -5 0
-10 -4 -10 -10z"/>
<path d="M2189 4633 c0 -10 -3 -39 -5 -65 -3 -28 -1 -48 4 -48 6 0 12 29 14
65 1 36 0 65 -4 65 -5 0 -8 -8 -9 -17z"/>
<path d="M2030 4401 c0 -11 4 -22 8 -25 14 -9 35 12 29 28 -9 23 -37 20 -37
-3z"/>
<path d="M2270 4408 c0 -5 6 -8 13 -8 6 -1 -1 -8 -17 -16 -26 -15 -27 -17 -12
-32 15 -15 17 -15 31 5 9 13 22 20 30 17 8 -4 15 -1 15 5 0 6 -5 11 -12 11
-20 0 5 18 32 23 14 3 1 4 -27 3 -29 0 -53 -4 -53 -8z"/>
<path d="M2304 4346 c-10 -26 -1 -38 20 -23 16 12 16 14 2 26 -13 11 -17 11
-22 -3z"/>
<path d="M1786 4224 c-11 -41 8 -48 20 -9 9 27 8 35 -1 35 -7 0 -16 -12 -19
-26z"/>
<path d="M1476 4144 c-10 -26 -7 -32 17 -40 12 -4 36 -17 53 -30 17 -13 36
-24 42 -24 7 0 12 -6 12 -13 0 -7 9 -18 20 -25 18 -11 22 -8 38 26 11 20 21
55 24 77 l5 40 -102 2 c-85 2 -104 -1 -109 -13z"/>
<path d="M2100 4150 c-12 -8 -10 -10 10 -11 14 0 32 -2 40 -5 8 -2 29 -6 45
-9 l30 -6 -25 14 c-36 21 -82 29 -100 17z"/>
<path d="M2449 4082 c-3 -38 4 -211 11 -264 12 -86 27 -117 59 -124 43 -9 55
-19 78 -65 49 -99 19 -135 -129 -150 -51 -5 -122 -8 -157 -7 -64 3 -64 3 -72
-27 -13 -46 -2 -64 59 -94 31 -15 73 -37 92 -49 19 -12 52 -31 72 -42 48 -26
51 -33 27 -54 -20 -17 -21 -17 -14 3 7 23 -13 39 -27 20 -8 -11 -8 -10 -4 4 4
12 2 17 -6 15 -7 -3 -14 -17 -16 -31 -2 -15 -9 -27 -15 -27 -20 1 -49 28 -42
39 4 7 -5 11 -22 11 -22 0 -25 2 -13 10 12 8 10 10 -10 10 -14 0 -34 6 -45 13
-11 8 -39 21 -63 30 -23 9 -60 28 -82 42 -22 14 -44 25 -50 25 -5 0 -33 11
-62 24 -75 35 -238 97 -340 131 -48 16 -85 32 -82 36 2 4 -4 5 -15 2 -11 -3
-21 2 -24 11 -4 9 -13 13 -22 10 -8 -3 -15 -2 -15 3 0 5 -16 15 -35 22 -38 13
-40 33 -2 24 22 -5 22 -5 2 10 -11 9 -37 17 -58 17 -23 0 -51 9 -68 20 -15 12
-42 26 -59 32 -21 7 -28 14 -21 21 15 15 103 16 134 0 15 -7 27 -11 27 -8 0 2
16 -4 35 -15 l35 -20 6 24 c4 17 -3 36 -28 68 -50 68 -63 89 -61 98 1 4 -4 11
-12 14 -15 5 -17 1 -19 -44 0 -14 -5 -31 -9 -37 -9 -14 -57 -18 -57 -5 0 10
-146 117 -173 128 -12 4 -17 1 -17 -12 0 -11 -9 -30 -20 -44 -11 -14 -20 -38
-20 -53 0 -20 -6 -30 -19 -34 -11 -3 -23 -20 -30 -43 -7 -24 -16 -37 -24 -34
-8 3 -13 -4 -14 -17 -1 -12 -6 -25 -10 -28 -4 -3 -14 -15 -21 -26 -7 -11 -22
-35 -33 -52 -12 -18 -27 -33 -33 -33 -7 0 -18 -11 -24 -25 -6 -14 -16 -25 -22
-25 -5 0 -10 -7 -10 -15 0 -8 -6 -15 -13 -15 -7 0 -17 -8 -23 -18 -10 -16 -7
-17 27 -14 29 3 39 9 39 21 0 16 123 97 180 119 31 12 169 0 178 -15 4 -6 32
-15 62 -21 58 -11 185 -55 205 -72 6 -5 30 -16 51 -24 44 -15 104 -41 203 -89
39 -19 84 -32 115 -34 87 -5 115 -10 131 -23 13 -11 19 -7 17 11 -1 4 8 5 18
2 11 -3 20 -9 20 -14 0 -5 5 -8 12 -7 7 2 12 -11 13 -32 2 -19 4 -40 6 -45 5
-13 -34 -91 -64 -129 -19 -23 -26 -26 -47 -18 -45 17 -82 23 -76 14 3 -6 18
-13 33 -17 16 -3 36 -14 45 -22 25 -23 41 -12 79 54 25 44 34 53 36 38 5 -28
25 -65 34 -65 5 0 5 8 2 17 -6 15 -5 16 9 3 8 -8 13 -22 10 -32 -2 -10 1 -18
7 -18 6 0 11 7 11 16 0 8 5 12 10 9 6 -3 10 -18 10 -31 0 -16 5 -24 13 -21 8
3 11 23 9 66 -3 48 0 67 13 81 12 14 15 27 10 51 -5 22 -4 29 4 25 6 -4 11
-16 11 -26 0 -11 18 -84 40 -162 48 -170 49 -178 60 -428 9 -223 9 -225 -64
-213 -60 9 -86 20 -86 38 0 17 -11 20 -25 6 -6 -5 -19 -11 -30 -13 -35 -6 -47
36 -56 192 -4 80 -15 176 -23 215 -9 38 -16 79 -16 91 0 16 -20 31 -92 68
-190 96 -213 115 -237 188 -14 44 -24 52 -51 43 -28 -9 -26 -49 5 -113 14 -29
25 -56 25 -62 0 -5 4 -10 9 -10 5 0 22 -11 38 -24 15 -13 60 -33 99 -45 81
-24 108 -47 99 -83 -4 -16 -1 -29 9 -37 20 -17 20 -37 1 -45 -22 -8 -17 -50
18 -136 l10 -25 7 26 c9 31 -7 206 -20 231 -6 11 -6 19 0 23 14 8 32 -4 27
-18 -2 -7 0 -25 5 -42 11 -36 14 -51 23 -135 3 -36 13 -104 22 -153 8 -48 12
-94 9 -103 -4 -9 -1 -23 5 -30 23 -28 -23 -48 -50 -21 -10 10 -12 9 -9 -3 2
-10 -7 -16 -29 -18 -18 -2 -33 1 -33 6 0 5 -24 8 -52 6 -29 -2 -78 0 -108 5
-44 7 -58 6 -72 -6 -9 -8 -22 -12 -29 -7 -7 4 -17 0 -25 -10 -8 -12 -14 -14
-19 -6 -5 8 -11 8 -21 -1 -11 -9 -15 -8 -20 4 -4 11 -16 14 -40 12 -34 -3 -48
15 -24 30 6 4 10 14 9 23 -1 10 0 22 1 27 1 6 2 30 2 55 l0 45 11 -37 c13 -46
25 -50 19 -7 -3 21 1 34 13 43 13 9 15 15 7 20 -7 4 -12 36 -13 74 -1 37 -3
59 -6 50 -6 -24 -19 -23 -26 2 -3 11 -2 18 3 15 9 -6 6 186 -5 230 -3 17 -10
39 -15 50 -5 11 -28 64 -51 118 -23 54 -46 100 -50 103 -5 3 -2 -11 6 -30 8
-20 15 -46 15 -58 0 -13 7 -34 16 -46 8 -12 17 -31 19 -42 2 -12 9 -36 15 -55
5 -19 15 -50 20 -68 18 -61 9 -63 -14 -2 -45 116 -119 257 -163 305 -27 31
-100 76 -109 67 -3 -2 22 -24 55 -48 39 -28 59 -49 56 -59 -2 -8 1 -24 8 -36
6 -12 25 -45 41 -75 16 -30 33 -57 39 -60 5 -4 7 -15 3 -25 -4 -10 -4 -15 0
-11 7 7 56 -102 50 -112 -2 -3 0 -30 5 -60 9 -60 2 -85 -15 -53 -11 20 -12 20
-22 -13 -7 -22 -7 -32 -1 -28 6 4 8 -1 4 -11 -4 -10 -7 -22 -7 -27 0 -6 -4 -7
-10 -4 -5 3 -7 0 -4 -9 3 -8 -3 -34 -14 -58 -10 -23 -27 -68 -37 -98 -9 -30
-25 -66 -35 -80 -10 -14 -20 -36 -21 -49 -2 -14 -10 -27 -18 -29 -10 -3 -12 1
-8 17 6 24 -5 28 -23 6 -9 -10 -9 -15 -1 -15 6 0 11 -4 11 -10 0 -5 -8 -10
-19 -10 -10 0 -24 -7 -31 -15 -11 -13 -61 -18 -57 -5 1 3 -2 5 -8 5 -5 0 -9
-5 -9 -12 2 -13 -40 -1 -63 19 -7 6 -13 7 -13 3 0 -4 -7 -1 -17 6 -9 8 -18 13
-20 12 -1 -2 -4 -3 -5 -2 -24 7 -38 5 -38 -7 0 -17 -17 -19 -23 -1 -2 6 -7 9
-10 6 -4 -3 1 -15 9 -28 17 -23 51 -40 94 -46 90 -11 130 -39 130 -91 0 -20
26 -46 42 -43 7 2 44 -12 82 -29 49 -23 84 -32 119 -32 28 0 65 -5 82 -11 27
-10 31 -15 27 -43 -3 -17 -18 -43 -33 -59 -38 -38 -54 -95 -54 -197 0 -47 -4
-91 -9 -98 -4 -8 -8 -42 -9 -78 0 -35 -5 -64 -10 -64 -5 0 -4 -7 3 -15 7 -8 9
-15 4 -16 -5 0 -40 -2 -79 -4 -38 -2 -82 -5 -97 -6 -15 -1 -29 -8 -32 -15 -3
-8 -14 -14 -24 -14 -16 0 -20 10 -25 52 -5 39 -13 59 -32 75 -16 14 -25 32
-25 51 0 21 -8 35 -25 46 -14 9 -25 15 -26 14 0 -2 -3 -38 -5 -82 -5 -68 -4
-78 10 -73 12 5 17 -3 21 -31 3 -20 10 -45 15 -54 8 -13 4 -18 -20 -23 -17 -4
-44 -6 -62 -5 -47 3 -56 0 -33 -10 16 -7 17 -9 3 -9 -9 -1 -20 4 -23 9 -3 6
-11 10 -16 10 -6 0 -8 -4 -4 -9 3 -6 -19 -12 -52 -14 -56 -3 -56 -3 15 -5 l72
-2 0 -38 c0 -21 -8 -90 -17 -153 -15 -98 -18 -192 -18 -659 0 -425 -3 -550
-13 -567 l-13 -23 628 0 628 0 39 74 c43 82 100 152 132 160 20 6 20 3 16
-114 l-4 -120 579 0 579 0 27 88 c64 207 94 391 100 624 2 66 3 68 28 68 17 0
28 6 31 18 8 28 7 37 -4 34 -6 -2 -8 4 -5 12 4 9 2 18 -3 21 -6 4 -10 11 -10
18 0 8 3 8 12 -1 16 -16 28 -15 28 3 0 8 4 15 9 15 16 0 20 29 9 60 -18 54 -1
74 94 106 46 15 110 46 143 68 33 23 73 48 90 57 16 9 30 25 30 34 0 10 7 20
15 22 13 4 13 3 0 -6 -9 -7 -10 -11 -3 -11 23 0 25 22 7 87 -16 58 -19 63 -31
47 -12 -16 -13 -16 -13 8 0 15 4 28 10 30 10 3 -11 143 -34 223 -10 37 -14 40
-48 43 -28 2 -38 8 -38 20 0 46 -98 328 -153 436 -60 121 -122 288 -157 421
-17 66 -39 145 -49 175 -11 30 -31 93 -46 140 -15 47 -34 92 -42 100 -12 13
-13 11 -3 -14 6 -16 8 -31 5 -34 -3 -3 -5 0 -5 7 0 7 -4 9 -10 6 -5 -3 -7 0
-4 8 3 8 -5 24 -17 36 -13 12 -24 28 -25 37 -4 26 -13 29 -29 8 -17 -22 -20
-48 -5 -39 7 4 9 -3 5 -22 -5 -19 -4 -24 3 -15 8 11 10 11 15 -1 3 -9 0 -20
-7 -26 -13 -11 -25 16 -41 99 -4 19 -21 55 -38 80 -17 25 -30 56 -29 70 1 19
0 22 -8 10 -7 -11 -12 -12 -21 -3 -6 6 -18 9 -25 6 -8 -3 -14 1 -14 10 0 8 -6
17 -12 20 -10 3 -8 10 5 23 13 14 17 15 14 4 -2 -8 -2 -12 0 -7 8 14 25 7 19
-8 -3 -9 0 -15 10 -15 19 0 6 27 -30 58 -35 29 -40 28 -32 -10 5 -28 4 -30 -7
-17 -6 9 -25 19 -41 23 -28 7 -29 7 -14 -15 8 -12 23 -24 33 -25 20 -3 64 -51
65 -71 0 -7 14 -28 31 -47 31 -35 51 -106 31 -106 -6 0 -22 12 -36 26 -13 14
-36 39 -51 55 -15 15 -25 35 -22 43 3 8 -1 17 -9 20 -8 3 -20 20 -26 36 -5 17
-15 29 -20 28 -13 -5 -12 -7 5 -48 8 -19 23 -63 33 -98 15 -55 22 -65 58 -85
32 -17 44 -33 59 -72 32 -88 36 -102 24 -114 -7 -7 -5 -30 7 -78 29 -110 37
-145 43 -195 6 -53 4 -55 -60 -60 -37 -3 -39 -1 -53 37 -8 22 -21 69 -29 105
-9 36 -24 88 -35 115 -11 28 -43 111 -71 185 -28 74 -61 153 -74 175 -43 77
-114 193 -161 266 -82 127 -92 143 -113 183 -23 44 -13 71 20 61 40 -13 16 13
-33 36 -37 17 -52 21 -55 12 -3 -8 -18 1 -38 23 -19 20 -39 33 -45 29 -5 -3
-10 -2 -10 4 0 5 -9 13 -20 16 -11 4 -18 10 -15 15 6 10 -76 80 -93 80 -6 0
-18 10 -26 23 -13 20 -14 27 -1 65 8 23 19 50 25 60 13 22 41 95 38 96 -2 1
-16 8 -33 17 -36 20 -105 40 -106 31z m-311 -845 c3 -40 -13 -51 -21 -14 -2
12 -8 30 -12 41 -6 14 -4 17 11 14 14 -2 20 -13 22 -41z m-747 -49 c11 -21 11
-22 -4 -9 -10 7 -17 17 -17 22 0 15 9 10 21 -13z m1170 6 c7 -9 22 -20 34 -25
15 -7 12 -8 -13 -4 -19 2 -43 0 -55 -6 -21 -10 -21 -9 -3 5 17 14 17 16 3 22
-9 3 -14 10 -11 15 8 14 30 11 45 -7z m875 -308 c3 -17 10 -35 14 -41 4 -5 10
-27 14 -47 8 -45 -9 -52 -18 -8 -3 17 -9 30 -13 29 -19 -3 -27 2 -16 9 10 6 7
17 -12 42 -32 43 -32 59 -1 53 18 -4 27 -14 32 -37z m-1896 -41 c0 -8 -4 -15
-10 -15 -5 0 -7 7 -4 15 4 8 8 15 10 15 2 0 4 -7 4 -15z m1896 -72 c-10 -10
-19 5 -10 18 6 11 8 11 12 0 2 -7 1 -15 -2 -18z m-20 -54 c7 -21 9 -39 5 -39
-4 0 -12 20 -18 45 -12 54 -3 50 13 -6z m11 -71 c-3 -8 -6 -5 -6 6 -1 11 2 17
5 13 3 -3 4 -12 1 -19z m73 -146 c0 -50 -23 -55 -28 -6 -2 23 -1 26 8 14 9
-12 11 -10 6 10 -3 14 -8 53 -10 85 l-6 60 15 -60 c8 -33 14 -79 15 -103z
m-1960 -112 c0 -5 -7 -7 -15 -4 -8 4 -15 8 -15 10 0 2 7 4 15 4 8 0 15 -4 15
-10z m-15 -30 c3 -5 1 -10 -4 -10 -6 0 -11 5 -11 10 0 6 2 10 4 10 3 0 8 -4
11 -10z m85 -260 c0 -5 -2 -10 -4 -10 -3 0 -8 5 -11 10 -3 6 -1 10 4 10 6 0
11 -4 11 -10z m210 -51 c139 -1 180 -5 180 -15 0 -20 -50 -54 -80 -54 -33 0
-90 -27 -97 -47 -8 -19 13 -39 62 -56 93 -34 111 -43 132 -67 27 -30 29 -50 6
-51 -52 -4 -120 5 -140 18 -13 9 -27 12 -31 9 -11 -12 46 -56 72 -56 13 0 34
-9 47 -19 23 -19 24 -19 5 -40 -12 -14 -31 -21 -54 -21 l-34 0 22 -18 c13 -11
20 -24 16 -30 -9 -15 -73 -15 -114 -1 -51 18 -60 4 -15 -22 44 -25 63 -49 39
-49 -30 0 -194 53 -235 76 -24 13 -58 24 -76 24 l-33 0 4 48 c11 155 17 202
23 198 4 -3 5 8 3 25 -3 17 0 29 7 29 6 0 11 6 11 14 0 23 74 116 88 111 7 -3
94 -5 192 -6z m2220 -393 c0 -3 -4 -8 -10 -11 -5 -3 -10 -1 -10 4 0 6 5 11 10
11 6 0 10 -2 10 -4z m57 -278 c-3 -8 -6 -5 -6 6 -1 11 2 17 5 13 3 -3 4 -12 1
-19z m-25 -117 c-5 -3 -12 -13 -15 -21 -4 -12 -6 -11 -6 3 -1 9 5 26 12 37 10
18 12 18 15 4 2 -9 0 -19 -6 -23z m58 19 c0 -5 -4 -10 -10 -10 -5 0 -10 5 -10
10 0 6 5 10 10 10 6 0 10 -4 10 -10z m-105 -50 c-3 -5 -11 -10 -16 -10 -6 0
-7 5 -4 10 3 6 11 10 16 10 6 0 7 -4 4 -10z m51 -28 c-8 -13 -56 -22 -56 -11
0 5 9 9 19 9 11 0 23 5 26 11 4 6 9 8 12 5 3 -2 2 -9 -1 -14z m44 14 c0 -2 -7
-7 -16 -10 -8 -3 -12 -2 -9 4 6 10 25 14 25 6z m-1113 -100 c1 -1 5 -20 7 -43
5 -33 1 -45 -19 -67 -23 -25 -29 -26 -119 -25 -109 1 -112 4 -100 84 3 25 7
45 8 46 0 0 37 3 81 6 44 2 82 6 84 9 3 3 51 -5 58 -10z m-1053 -31 c3 -8 1
-15 -4 -15 -6 0 -10 7 -10 15 0 8 2 15 4 15 2 0 6 -7 10 -15z m43 -22 c-3 -10
-5 -4 -5 12 0 17 2 24 5 18 2 -7 2 -21 0 -30z m183 1 c0 -8 -4 -12 -10 -9 -5
3 -10 -3 -10 -14 0 -12 -4 -21 -10 -21 -5 0 -10 14 -10 30 0 23 4 30 20 30 11
0 20 -7 20 -16z m42 9 c-10 -4 -10 -8 -1 -19 9 -11 8 -14 -5 -14 -9 0 -16 8
-16 20 0 13 6 20 18 19 11 0 12 -2 4 -6z m228 -55 c6 -19 5 -28 -1 -28 -6 0
-13 10 -17 22 -5 21 -6 21 -13 2 -7 -17 -8 -17 -8 4 -1 12 5 31 12 42 11 19
12 19 15 3 2 -10 7 -30 12 -45z m94 21 c6 -39 8 -41 21 -23 12 16 14 17 15 3
0 -20 -20 -29 -66 -29 -27 0 -34 4 -34 20 0 12 7 20 18 20 16 1 16 1 -1 11
-20 12 -13 31 8 22 8 -3 15 0 15 6 0 6 4 11 9 11 5 0 11 -19 15 -41z m153 19
c-3 -8 -6 -5 -6 6 -1 11 2 17 5 13 3 -3 4 -12 1 -19z m-424 -30 c-3 -16 -8
-28 -12 -28 -9 0 -13 49 -5 62 11 17 23 -6 17 -34z m114 -27 c-15 -6 -20 8
-12 36 l8 28 6 -30 c4 -16 3 -32 -2 -34z m323 29 c0 -5 -4 -10 -10 -10 -5 0
-10 5 -10 10 0 6 5 10 10 10 6 0 10 -4 10 -10z m-383 -22 c-3 -8 -6 -5 -6 6
-1 11 2 17 5 13 3 -3 4 -12 1 -19z m347 -24 c3 -8 2 -12 -4 -9 -6 3 -10 10
-10 16 0 14 7 11 14 -7z m30 1 c-4 -8 -8 -15 -10 -15 -2 0 -4 7 -4 15 0 8 4
15 10 15 5 0 7 -7 4 -15z m-64 -7 c0 -4 -9 -8 -20 -8 -11 0 -20 4 -20 9 0 6 9
9 20 8 11 -1 20 -5 20 -9z m1060 -43 c0 -8 -4 -15 -10 -15 -5 0 -10 7 -10 15
0 8 5 15 10 15 6 0 10 -7 10 -15z"/>
<path d="M1418 3946 c-5 -23 -2 -25 17 -20 18 4 23 2 22 -13 -1 -10 -8 -23
-16 -29 -11 -9 -11 -13 -1 -19 7 -4 16 -2 20 5 4 6 10 11 14 11 3 -1 16 -1 29
0 14 0 17 2 7 6 -31 12 -42 25 -28 35 10 8 10 11 0 15 -6 2 -9 10 -5 16 4 6 0
8 -10 4 -9 -3 -18 -1 -21 6 -3 8 -5 6 -5 -3 -1 -12 -3 -12 -10 -2 -6 10 -10 7
-13 -12z"/>
<path d="M979 3914 c-14 -17 -23 -31 -53 -85 -17 -32 -114 -168 -126 -179 -12
-10 -50 -78 -50 -89 0 -6 11 -11 25 -11 14 0 25 5 25 11 0 6 -7 9 -15 5 -8 -3
-15 -4 -15 -2 0 3 92 145 130 201 48 71 101 158 97 161 -2 3 -10 -3 -18 -12z"/>
<path d="M2080 3863 c0 -2 9 -13 20 -25 13 -14 20 -17 20 -8 0 9 6 8 22 -6 12
-10 18 -14 15 -7 -4 6 0 16 9 21 12 7 4 11 -35 19 -28 6 -51 8 -51 6z"/>
<path d="M1475 3840 c3 -5 8 -10 11 -10 2 0 4 5 4 10 0 6 -5 10 -11 10 -5 0
-7 -4 -4 -10z"/>
<path d="M1565 3822 c-3 -9 -2 -18 4 -21 5 -3 16 -22 25 -41 58 -121 79 -145
149 -165 34 -10 67 -24 73 -32 6 -7 17 -13 25 -13 8 -1 31 -7 51 -14 21 -8 36
-10 33 -6 -4 6 38 27 87 43 22 8 34 52 21 80 -6 12 -15 34 -22 50 -9 24 -16
27 -54 27 -23 0 -51 -6 -62 -13 -11 -8 -43 -22 -72 -32 -79 -28 -111 -9 -182
104 -28 46 -65 62 -76 33z"/>
<path d="M2206 3575 c-3 -8 -1 -15 3 -15 5 0 11 7 15 15 3 8 1 15 -3 15 -5 0
-11 -7 -15 -15z"/>
<path d="M2190 3521 c0 -6 4 -13 10 -16 6 -3 7 1 4 9 -7 18 -14 21 -14 7z"/>
<path d="M2971 3433 c77 -139 95 -154 28 -23 -23 44 -46 80 -51 80 -5 0 6 -26
23 -57z"/>
<path d="M946 3471 c-10 -15 10 -22 36 -12 12 6 18 10 11 10 -6 1 -18 4 -26 7
-8 3 -18 1 -21 -5z"/>
<path d="M1140 3426 c0 -2 9 -6 20 -9 11 -3 18 -1 14 4 -5 9 -34 13 -34 5z"/>
<path d="M770 3416 c0 -2 7 -7 16 -10 8 -3 12 -2 9 4 -6 10 -25 14 -25 6z"/>
<path d="M1198 3403 c7 -3 16 -2 19 1 4 3 -2 6 -13 5 -11 0 -14 -3 -6 -6z"/>
<path d="M1246 3382 c5 -5 23 -14 39 -20 l30 -12 -24 20 c-13 11 -30 20 -39
20 -9 0 -12 -3 -6 -8z"/>
<path d="M1345 3320 c20 -22 35 -26 35 -9 0 5 -4 7 -10 4 -5 -3 -10 -2 -10 3
0 6 -8 13 -17 16 -15 6 -15 4 2 -14z"/>
<path d="M1390 3301 c0 -9 30 -24 36 -18 2 1 -6 8 -16 15 -11 7 -20 8 -20 3z"/>
<path d="M1815 3270 c-3 -5 1 -10 9 -10 8 0 18 5 21 10 3 6 -1 10 -9 10 -8 0
-18 -4 -21 -10z"/>
<path d="M2397 3255 c-4 -8 -1 -17 6 -21 7 -4 9 -4 5 1 -4 4 -3 14 3 22 7 8 8
13 1 13 -5 0 -12 -7 -15 -15z"/>
<path d="M1780 3225 c21 -22 26 -24 28 -10 4 20 4 20 -28 30 l-25 7 25 -27z"/>
<path d="M3445 3122 c4 -7 1 -20 -6 -28 -6 -8 -9 -17 -5 -21 3 -3 6 -1 6 6 0
7 4 10 9 6 17 -10 21 12 5 31 -9 10 -13 13 -9 6z"/>
<path d="M2100 3083 c0 -13 5 -23 10 -23 13 0 13 11 0 30 -8 12 -10 11 -10 -7z"/>
<path d="M2080 3039 c0 -5 5 -7 10 -4 6 3 10 8 10 11 0 2 -4 4 -10 4 -5 0 -10
-5 -10 -11z"/>
<path d="M3440 3026 c0 -9 5 -16 10 -16 6 0 10 4 10 9 0 6 -4 13 -10 16 -5 3
-10 -1 -10 -9z"/>
<path d="M2060 3015 c0 -6 6 -20 14 -31 25 -35 81 -279 70 -307 -2 -7 3 -30
11 -52 12 -33 22 -34 16 -1 -1 5 -6 45 -11 90 -14 119 -32 220 -42 231 -4 5
-8 20 -8 33 0 14 -5 22 -12 19 -7 -2 -18 3 -25 12 -7 9 -13 11 -13 6z"/>
<path d="M3350 2853 c0 -4 5 -15 10 -23 8 -13 10 -13 10 2 0 9 -4 20 -10 23
-5 3 -10 3 -10 -2z"/>
<path d="M1998 2566 c-2 -30 1 -51 9 -58 9 -7 13 -7 13 1 0 6 -5 11 -12 11 -9
0 -9 3 0 12 14 14 15 47 3 67 -6 9 -10 -2 -13 -33z"/>
<path d="M1213 2574 c-3 -8 -1 -20 6 -27 8 -8 11 -4 11 16 0 30 -7 35 -17 11z"/>
<path d="M1601 2564 c0 -11 3 -14 6 -6 3 7 2 16 -1 19 -3 4 -6 -2 -5 -13z"/>
<path d="M1308 2550 c-7 -24 -3 -38 8 -28 3 4 4 17 2 30 l-3 23 -7 -25z"/>
<path d="M1611 2528 c-12 -4 -21 -13 -20 -20 0 -10 2 -10 6 -1 7 19 31 -7 26
-28 -6 -20 48 -42 83 -33 34 9 30 28 -3 20 -18 -4 -23 -3 -15 2 8 6 11 18 7
34 -7 28 -46 40 -84 26z"/>
<path d="M2216 2529 c-25 -15 0 -32 26 -18 10 6 23 7 28 4 14 -9 51 5 45 16
-8 12 -76 11 -99 -2z"/>
<path d="M1751 2484 c0 -11 3 -14 6 -6 3 7 2 16 -1 19 -3 4 -6 -2 -5 -13z"/>
<path d="M1310 2480 c0 -5 5 -10 11 -10 5 0 7 5 4 10 -3 6 -8 10 -11 10 -2 0
-4 -4 -4 -10z"/>
<path d="M1790 2480 c0 -5 7 -7 15 -4 8 4 15 8 15 10 0 2 -7 4 -15 4 -8 0 -15
-4 -15 -10z"/>
<path d="M881 2392 c-1 -20 3 -22 36 -20 20 2 38 9 41 16 3 9 -3 10 -23 2 -36
-14 -43 -13 -48 8 -4 13 -5 11 -6 -6z"/>
<path d="M815 2380 c-3 -5 -2 -10 4 -10 5 0 13 5 16 10 3 6 2 10 -4 10 -5 0
-13 -4 -16 -10z"/>
<path d="M428 2073 c7 -3 16 -2 19 1 4 3 -2 6 -13 5 -11 0 -14 -3 -6 -6z"/>
<path d="M152 1898 c-7 -7 -12 -8 -12 -2 0 5 -5 2 -10 -6 -8 -12 -11 -13 -19
-1 -5 8 -11 9 -15 3 -9 -15 51 -83 117 -133 32 -24 88 -70 124 -102 37 -32 79
-65 95 -73 15 -8 28 -18 28 -22 0 -10 91 -55 98 -48 3 3 -3 9 -12 12 -14 5
-15 9 -4 15 19 12 36 11 18 -2 -11 -7 -4 -8 24 -3 28 5 37 4 32 -5 -5 -7 -1
-9 9 -5 9 4 13 13 10 24 -3 11 0 17 10 17 8 0 15 -5 16 -11 0 -6 4 -1 10 12 5
13 6 35 2 50 -5 23 -7 24 -13 7 -6 -18 -7 -18 -12 3 -4 12 -2 22 3 22 5 0 9 7
9 15 0 9 -9 15 -25 15 -35 0 -73 20 -78 41 -3 11 -14 19 -27 19 -12 0 -20 5
-18 12 2 6 -3 19 -12 27 -15 16 -106 51 -129 51 -7 0 -30 9 -53 20 -22 11 -45
17 -51 13 -6 -3 -7 -2 -4 4 4 6 -8 10 -29 11 -19 1 -42 8 -50 17 -18 18 -17
18 -32 3z m408 -318 c12 -8 11 -10 -7 -10 -13 0 -23 5 -23 10 0 13 11 13 30 0z"/>
<path d="M711 1604 c0 -11 3 -14 6 -6 3 7 2 16 -1 19 -3 4 -6 -2 -5 -13z"/>
<path d="M690 1576 c0 -9 5 -16 10 -16 6 0 10 4 10 9 0 6 -4 13 -10 16 -5 3
-10 -1 -10 -9z"/>
<path d="M659 1470 c24 -11 55 -23 70 -25 21 -4 22 -4 6 4 -16 7 -9 10 35 18
l55 10 -80 -1 c-44 0 -91 3 -105 7 -14 4 -5 -2 19 -13z"/>
<path d="M866 1469 c25 -10 92 -11 97 -1 3 4 -22 7 -56 8 -36 0 -53 -3 -41 -7z"/>
<path d="M838 1443 c7 -3 16 -2 19 1 4 3 -2 6 -13 5 -11 0 -14 -3 -6 -6z"/>
<path d="M3858 898 c-16 -16 -28 -34 -28 -41 0 -7 -18 -24 -40 -37 -44 -27
-52 -65 -15 -65 31 0 32 -54 3 -91 -28 -35 -58 -98 -58 -122 0 -10 5 -23 12
-30 15 -15 64 -16 73 -2 3 6 -3 10 -14 10 -22 0 -41 27 -41 58 0 19 62 120 96
157 11 11 36 41 56 67 36 44 37 47 23 76 -25 49 -37 53 -67 20z"/>
<path d="M4079 901 l-24 -20 47 2 c51 2 55 6 36 25 -17 17 -32 15 -59 -7z"/>
<path d="M3986 805 c-9 -14 -13 -25 -9 -25 10 0 36 40 30 46 -2 3 -12 -7 -21
-21z"/>
<path d="M3914 727 c-80 -83 -89 -116 -33 -130 18 -5 19 -2 13 30 -6 33 -5 35
17 28 23 -8 23 -8 5 19 -17 27 -17 28 3 33 12 3 18 9 16 14 -3 4 4 13 15 19
19 10 28 30 13 30 -5 0 -26 -19 -49 -43z"/>
</g>
</svg>
